<svg xmlns="http://www.w3.org/2000/svg" width="256" height="256" viewBox="0 0 100 100"><rect width="100" height="100" rx="20" fill="#13008a"></rect><path d="M14.02 63.32L14.02 63.32Q10.22 63.32 7.19 62.53Q4.16 61.75 1.19 59.70L1.19 59.70L1.19 51.48L6.76 51.48L7.46 56.00Q8.31 56.83 10.11 57.37Q11.91 57.91 14.02 57.91L14.02 57.91Q15.68 57.91 16.79 57.48Q17.90 57.05 18.48 56.23Q19.05 55.41 19.05 54.29L19.05 54.29Q19.05 53.21 18.52 52.38Q17.99 51.55 16.79 50.83Q15.59 50.11 13.55 49.39L13.55 49.39Q9.50 48.16 6.88 46.78Q4.25 45.40 2.96 43.50Q1.66 41.60 1.66 38.86L1.66 38.86Q1.66 36.16 3.18 34.13Q4.70 32.10 7.36 30.93Q10.02 29.76 13.46 29.72L13.46 29.72Q17.36 29.63 20.35 30.55Q23.34 31.47 25.58 33.20L25.58 33.20L25.58 40.84L20.19 40.84L19.32 36.39Q18.51 35.94 17.07 35.58Q15.63 35.22 13.93 35.22L13.93 35.22Q12.45 35.22 11.31 35.64Q10.18 36.05 9.53 36.86Q8.87 37.67 8.87 38.86L8.87 38.86Q8.87 39.83 9.42 40.59Q9.97 41.35 11.34 42.06Q12.71 42.77 15.14 43.62L15.14 43.62Q20.62 45.19 23.47 47.66Q26.33 50.13 26.33 54.25L26.33 54.25Q26.33 57.10 24.78 59.13Q23.23 61.16 20.46 62.24Q17.70 63.32 14.02 63.32ZM41.11 62.85L28.33 62.85L28.33 58.58L31.36 57.88L31.36 32.79L27.90 32.10L27.90 27.81L38.54 27.81L38.54 57.88L41.11 58.58L41.11 62.85ZM56.29 62.85L43.76 62.85L43.76 58.83L45.44 58.36L45.40 58.27L41.26 52.52L46.02 48.00L53.41 57.82L56.29 58.58L56.29 62.85ZM52.43 43.69L37.74 56.33L34.12 52.61L44.68 43.19L44.70 43.15L42.23 42.77L42.23 38.54L55.55 38.54L55.55 42.83L52.43 43.69ZM71.52 62.85L58.29 62.85L58.29 58.58L61.30 57.88L61.30 43.53L57.86 42.83L57.86 38.54L68.51 38.54L68.51 57.88L71.52 58.58L71.52 62.85ZM68.53 33.67L61.07 33.67L61.07 27.81L68.53 27.81L68.53 33.67ZM86.63 72.19L73.40 72.19L73.40 67.90L76.50 67.21L76.50 43.53L73.04 42.83L73.04 38.54L83.20 38.54L83.51 41.33Q84.52 39.78 85.98 38.94Q87.44 38.10 89.53 38.10L89.53 38.10Q92.43 38.10 94.51 39.69Q96.58 41.29 97.70 44.15Q98.81 47.01 98.81 50.81L98.81 50.81L98.81 51.28Q98.81 54.90 97.70 57.61Q96.58 60.33 94.48 61.83Q92.38 63.32 89.44 63.32L89.44 63.32Q87.55 63.32 86.14 62.63Q84.72 61.95 83.69 60.60L83.69 60.60L83.69 67.21L86.63 67.90L86.63 72.19ZM87.29 57.82L87.29 57.82Q89.62 57.82 90.60 56.08Q91.58 54.33 91.58 51.28L91.58 51.28L91.58 50.81Q91.58 48.67 91.14 47.07Q90.70 45.46 89.74 44.56Q88.79 43.67 87.24 43.67L87.24 43.67Q86.07 43.67 85.15 44.19Q84.23 44.72 83.69 45.73L83.69 45.73L83.69 56.00Q84.23 56.90 85.16 57.36Q86.09 57.82 87.29 57.82Z" fill="#ff7d7d"></path></svg>